<svg width="33" height="32" viewBox="0 0 33 32" fill="none" xmlns="http://www.w3.org/2000/svg">
<path d="M11 16L11 10.6667C11 7.72115 13.3878 5.33334 16.3333 5.33334V5.33334C19.2789 5.33334 21.6667 7.72115 21.6667 10.6667L21.6667 16" stroke="#222222" stroke-linecap="round"/>
<path d="M5.36069 15.6678C5.50576 13.9269 5.5783 13.0565 6.15239 12.5282C6.72647 12 7.59994 12 9.34687 12H23.3191C25.0661 12 25.9395 12 26.5136 12.5282C27.0877 13.0565 27.1603 13.9269 27.3053 15.6678L28.1525 25.8339C28.237 26.8474 28.2792 27.3542 27.9821 27.6771C27.685 28 27.1765 28 26.1594 28H6.50661C5.48955 28 4.98103 28 4.68393 27.6771C4.38682 27.3542 4.42905 26.8474 4.51352 25.8339L5.36069 15.6678Z" stroke="#222222"/>
</svg>
